<?xml version="1.0" encoding="UTF-8"?>
<!DOCTYPE svg PUBLIC "-//W3C//DTD SVG 1.1//EN" "http://www.w3.org/Graphics/SVG/1.1/DTD/svg11.dtd">
<svg xmlns="http://www.w3.org/2000/svg" version="1.1" width="325px" height="325px" style="shape-rendering:geometricPrecision; text-rendering:geometricPrecision; image-rendering:optimizeQuality; fill-rule:evenodd; clip-rule:evenodd" xmlns:xlink="http://www.w3.org/1999/xlink">
<g><path style="opacity:1" fill="#fefefe" d="M -0.5,-0.5 C 107.833,-0.5 216.167,-0.5 324.5,-0.5C 324.5,107.833 324.5,216.167 324.5,324.5C 216.167,324.5 107.833,324.5 -0.5,324.5C -0.5,216.167 -0.5,107.833 -0.5,-0.5 Z"/></g>
<g><path style="opacity:1" fill="#15100d" d="M 154.5,37.5 C 206.921,36.5379 247.254,57.8712 275.5,101.5C 299.402,150.546 294.236,196.213 260,238.5C 218.404,279.353 169.904,290.186 114.5,271C 59.5673,245.314 34.4006,202.147 39,141.5C 47.3571,97.6081 71.8571,66.4414 112.5,48C 126.162,42.5845 140.162,39.0845 154.5,37.5 Z"/></g>
<g><path style="opacity:1" fill="#fb7d26" d="M 154.5,42.5 C 205.155,40.9054 243.989,61.2387 271,103.5C 294.193,150.8 289.193,194.8 256,235.5C 215.36,275.114 168.193,285.28 114.5,266C 72.3748,247.17 48.5415,214.67 43,168.5C 40.9816,124.374 57.8149,89.5409 93.5,64C 112.201,51.9345 132.534,44.7679 154.5,42.5 Z"/></g>
<g><path style="opacity:1" fill="#241407" d="M 191.5,111.5 C 191.409,113.698 192.075,114.031 193.5,112.5C 193.108,114.179 192.608,115.846 192,117.5C 189.957,119.208 188.29,121.208 187,123.5C 185.416,124.861 183.582,125.528 181.5,125.5C 181.784,123.585 181.451,121.919 180.5,120.5C 180.829,117.772 180.163,115.438 178.5,113.5C 178.5,113.167 178.5,112.833 178.5,112.5C 178.065,109.843 177.065,107.509 175.5,105.5C 175.656,101.236 174.989,97.2357 173.5,93.5C 173.328,89.0293 172.494,88.6959 171,92.5C 168.663,102.58 166.497,112.58 164.5,122.5C 162.825,125.507 162.159,128.84 162.5,132.5C 162.5,136.5 162.5,140.5 162.5,144.5C 161.5,144.5 160.5,144.5 159.5,144.5C 159.342,134.605 160.676,124.938 163.5,115.5C 164.801,111.057 165.468,106.391 165.5,101.5C 167.714,95.0727 169.381,88.4061 170.5,81.5C 172.911,81.1367 174.411,82.1367 175,84.5C 177.013,96.737 179.846,108.737 183.5,120.5C 184.274,121.711 185.107,121.711 186,120.5C 187.859,117.436 189.692,114.436 191.5,111.5 Z"/></g>
<g><path style="opacity:1" fill="#241407" d="M 209.5,83.5 C 213.17,83.3266 215.67,84.9933 217,88.5C 217.498,91.8168 217.665,95.1501 217.5,98.5C 216.5,98.5 215.5,98.5 214.5,98.5C 214.665,95.4816 214.498,92.4816 214,89.5C 211.695,87.9781 210.195,85.9781 209.5,83.5 Z"/></g>
<g><path style="opacity:1" fill="#241407" d="M 199.5,130.5 C 199.665,127.15 199.498,123.817 199,120.5C 198.768,119.263 198.268,118.263 197.5,117.5C 197.827,112.456 197.494,107.456 196.5,102.5C 195.579,104.777 194.913,107.11 194.5,109.5C 193.89,110.391 193.557,111.391 193.5,112.5C 192.075,114.031 191.409,113.698 191.5,111.5C 191.5,110.833 191.5,110.167 191.5,109.5C 193.163,107.562 193.829,105.228 193.5,102.5C 194.942,100.46 195.942,98.127 196.5,95.5C 197.325,94.6143 198.325,94.281 199.5,94.5C 200.511,111.218 202.177,127.885 204.5,144.5C 203.5,144.5 202.5,144.5 201.5,144.5C 201.468,139.609 200.801,134.943 199.5,130.5 Z"/></g>
<g><path style="opacity:1" fill="#7f3f13" d="M 115.5,97.5 C 116.568,96.5655 117.901,96.2322 119.5,96.5C 119.5,97.8333 119.5,99.1667 119.5,100.5C 118.833,102.5 118.167,104.5 117.5,106.5C 118.055,102.988 117.388,99.9878 115.5,97.5 Z"/></g>
<g><path style="opacity:1" fill="#a25119" d="M 173.5,93.5 C 174.989,97.2357 175.656,101.236 175.5,105.5C 173.864,101.79 173.198,97.7905 173.5,93.5 Z"/></g>
<g><path style="opacity:1" fill="#914816" d="M 193.5,102.5 C 193.829,105.228 193.163,107.562 191.5,109.5C 191.721,106.933 192.388,104.599 193.5,102.5 Z"/></g>
<g><path style="opacity:1" fill="#864314" d="M 197.5,117.5 C 196.681,114.695 196.181,111.695 196,108.5C 195.617,109.056 195.117,109.389 194.5,109.5C 194.913,107.11 195.579,104.777 196.5,102.5C 197.494,107.456 197.827,112.456 197.5,117.5 Z"/></g>
<g><path style="opacity:1" fill="#201105" d="M 235.5,102.5 C 241.696,102.076 247.696,102.909 253.5,105C 254.337,106.011 254.67,107.178 254.5,108.5C 250.512,107.51 246.512,106.51 242.5,105.5C 233.792,106.473 231.125,110.973 234.5,119C 238.986,120.494 243.153,122.66 247,125.5C 248.354,129.363 248.854,133.363 248.5,137.5C 241.326,139.296 233.993,139.963 226.5,139.5C 226.5,138.5 226.5,137.5 226.5,136.5C 231.844,136.666 237.177,136.499 242.5,136C 245.379,134.334 246.212,131.834 245,128.5C 240.31,124.658 235.31,121.325 230,118.5C 229.262,114.739 229.595,111.072 231,107.5C 233.415,106.589 234.915,104.922 235.5,102.5 Z"/></g>
<g><path style="opacity:1" fill="#994c17" d="M 165.5,101.5 C 165.468,106.391 164.801,111.057 163.5,115.5C 163.229,110.566 163.896,105.9 165.5,101.5 Z"/></g>
<g><path style="opacity:1" fill="#a9541a" d="M 175.5,105.5 C 177.065,107.509 178.065,109.843 178.5,112.5C 176.166,110.824 175.166,108.491 175.5,105.5 Z"/></g>
<g><path style="opacity:1" fill="#1e1105" d="M 119.5,96.5 C 120.5,96.5 121.5,96.5 122.5,96.5C 122.933,99.1656 123.433,101.832 124,104.5C 130.659,116.059 136.159,128.059 140.5,140.5C 138.408,140.439 136.908,139.439 136,137.5C 135.125,134.599 133.958,131.932 132.5,129.5C 131.962,127.883 131.629,126.216 131.5,124.5C 123.833,124.5 116.167,124.5 108.5,124.5C 108.5,125.833 108.5,127.167 108.5,128.5C 107.886,132.135 107.552,135.802 107.5,139.5C 106.5,139.5 105.5,139.5 104.5,139.5C 104.277,133.676 105.11,128.01 107,122.5C 109.168,116.584 111.835,110.918 115,105.5C 115.497,102.854 115.664,100.187 115.5,97.5C 117.388,99.9878 118.055,102.988 117.5,106.5C 115.657,108.853 114.323,111.52 113.5,114.5C 111.926,116.102 111.259,118.102 111.5,120.5C 117.346,121.817 123.346,121.817 129.5,120.5C 125.751,113.903 122.417,107.237 119.5,100.5C 119.5,99.1667 119.5,97.8333 119.5,96.5 Z"/></g>
<g><path style="opacity:1" fill="#9e4f18" d="M 113.5,114.5 C 113.741,116.898 113.074,118.898 111.5,120.5C 111.259,118.102 111.926,116.102 113.5,114.5 Z"/></g>
<g><path style="opacity:1" fill="#ed7624" d="M 119.5,100.5 C 122.417,107.237 125.751,113.903 129.5,120.5C 123.346,121.817 117.346,121.817 111.5,120.5C 113.074,118.898 113.741,116.898 113.5,114.5C 114.323,111.52 115.657,108.853 117.5,106.5C 118.167,104.5 118.833,102.5 119.5,100.5 Z"/></g>
<g><path style="opacity:1" fill="#904816" d="M 178.5,113.5 C 180.163,115.438 180.829,117.772 180.5,120.5C 179.076,118.485 178.41,116.152 178.5,113.5 Z"/></g>
<g><path style="opacity:1" fill="#8b4515" d="M 197.5,117.5 C 198.268,118.263 198.768,119.263 199,120.5C 199.498,123.817 199.665,127.15 199.5,130.5C 198.551,126.343 197.884,122.01 197.5,117.5 Z"/></g>
<g><path style="opacity:1" fill="#b95c1c" d="M 132.5,129.5 C 130.896,128.713 130.229,127.38 130.5,125.5C 123.5,125.5 116.5,125.5 109.5,125.5C 109.737,126.791 109.404,127.791 108.5,128.5C 108.5,127.167 108.5,125.833 108.5,124.5C 116.167,124.5 123.833,124.5 131.5,124.5C 131.629,126.216 131.962,127.883 132.5,129.5 Z"/></g>
<g><path style="opacity:1" fill="#924916" d="M 163.5,115.5 C 160.676,124.938 159.342,134.605 159.5,144.5C 158.184,135.148 159.017,125.815 162,116.5C 162.383,115.944 162.883,115.611 163.5,115.5 Z"/></g>
<g><path style="opacity:1" fill="#763b12" d="M 164.5,122.5 C 164.247,126.04 163.581,129.373 162.5,132.5C 162.159,128.84 162.825,125.507 164.5,122.5 Z"/></g>
<g><path style="opacity:1" fill="#7a3d12" d="M 93.5,125.5 C 94.7647,126.514 95.4313,128.014 95.5,130C 95.4915,131.707 95.1582,133.207 94.5,134.5C 94.7359,131.391 94.4025,128.391 93.5,125.5 Z"/></g>
<g><path style="opacity:1" fill="#190c03" d="M 93.5,125.5 C 94.4025,128.391 94.7359,131.391 94.5,134.5C 91.1393,135.684 88.1393,137.517 85.5,140C 79,140.5 72.5,141 66,141.5C 62.7421,141.507 59.5755,141.007 56.5,140C 55.0267,139.29 54.3601,138.124 54.5,136.5C 60.0947,136.399 65.5947,137.066 71,138.5C 75.461,137.753 79.961,137.253 84.5,137C 86.4552,136.047 88.1218,134.713 89.5,133C 90.448,132.517 91.448,132.351 92.5,132.5C 92.762,131.022 92.4287,129.689 91.5,128.5C 85.4561,125.332 79.4561,122.165 73.5,119C 64.8174,103.503 69.1507,96.3365 86.5,97.5C 86.5,98.5 86.5,99.5 86.5,100.5C 74.1324,97.3632 69.9658,101.696 74,113.5C 75.5967,116.219 77.7634,118.386 80.5,120C 85.0324,121.382 89.3657,123.215 93.5,125.5 Z"/></g>
<g><path style="opacity:1" fill="#201206" d="M 77.5,201.5 C 77.5,199.833 77.5,198.167 77.5,196.5C 75.5853,196.216 73.9187,196.549 72.5,197.5C 69.5,197.5 66.5,197.5 63.5,197.5C 63.5,199.833 63.5,202.167 63.5,204.5C 64.436,208.735 64.7693,213.069 64.5,217.5C 62.8962,214.597 61.8962,211.263 61.5,207.5C 60.3349,199.187 60.1683,190.853 61,182.5C 62.5527,176.404 66.2194,172.071 72,169.5C 74.5926,170.661 76.2592,172.661 77,175.5C 78.6248,181.963 80.4582,188.296 82.5,194.5C 81.5109,195.468 80.8443,196.635 80.5,198C 81.3783,203.463 81.7116,208.963 81.5,214.5C 80.5,214.5 79.5,214.5 78.5,214.5C 78.7693,210.069 78.436,205.735 77.5,201.5 Z"/></g>
<g><path style="opacity:1" fill="#211306" d="M 146.5,173.5 C 150.883,173.348 154.383,175.015 157,178.5C 161.651,188.172 161.485,197.672 156.5,207C 153.5,207.667 150.5,207.667 147.5,207C 146.347,205.117 144.681,204.284 142.5,204.5C 141.607,195.189 141.607,185.856 142.5,176.5C 144.973,176.912 146.306,175.912 146.5,173.5 Z"/></g>
<g><path style="opacity:1" fill="#ef7724" d="M 70.5,173.5 C 72.4109,173.574 73.5776,174.574 74,176.5C 76.1261,181.964 77.2928,187.631 77.5,193.5C 72.8478,193.998 68.1811,194.331 63.5,194.5C 62.021,186.028 64.3543,179.028 70.5,173.5 Z"/></g>
<g><path style="opacity:1" fill="#211306" d="M 128.5,189.5 C 128.5,185.5 128.5,181.5 128.5,177.5C 126.265,177.205 124.265,177.539 122.5,178.5C 121.85,178.804 121.183,179.137 120.5,179.5C 119.253,177.994 119.253,176.494 120.5,175C 126.825,174.5 133.158,174.334 139.5,174.5C 139.5,175.5 139.5,176.5 139.5,177.5C 136.833,177.5 134.167,177.5 131.5,177.5C 132.166,188.487 132.499,199.487 132.5,210.5C 131.5,210.5 130.5,210.5 129.5,210.5C 129.825,203.313 129.491,196.313 128.5,189.5 Z"/></g>
<g><path style="opacity:1" fill="#251507" d="M 88.5,175.5 C 89.5,175.5 90.5,175.5 91.5,175.5C 92.178,186.354 93.5113,197.021 95.5,207.5C 99.6216,207.267 102.622,205.267 104.5,201.5C 105.374,193.187 106.04,184.854 106.5,176.5C 107.5,176.5 108.5,176.5 109.5,176.5C 109.338,186.284 108.338,195.951 106.5,205.5C 104.641,207.192 102.641,208.692 100.5,210C 97.854,210.497 95.1873,210.664 92.5,210.5C 90.5578,198.931 89.2244,187.265 88.5,175.5 Z"/></g>
<g><path style="opacity:1" fill="#a15018" d="M 122.5,178.5 C 124.265,177.539 126.265,177.205 128.5,177.5C 128.5,181.5 128.5,185.5 128.5,189.5C 127.518,186.038 127.185,182.371 127.5,178.5C 125.833,178.5 124.167,178.5 122.5,178.5 Z"/></g>
<g><path style="opacity:1" fill="#f27825" d="M 147.5,177.5 C 150.088,177.543 152.254,178.543 154,180.5C 157.876,187.996 158.376,195.663 155.5,203.5C 150.01,205.892 146.51,204.225 145,198.5C 144.734,192.154 145.067,185.821 146,179.5C 146.717,178.956 147.217,178.289 147.5,177.5 Z"/></g>
<g><path style="opacity:1" fill="#1e1005" d="M 231.5,195.5 C 234.833,195.5 238.167,195.5 241.5,195.5C 241.5,196.5 241.5,197.5 241.5,198.5C 238.833,198.5 236.167,198.5 233.5,198.5C 233.5,200.5 233.5,202.5 233.5,204.5C 238.618,205.212 242.785,207.546 246,211.5C 247.289,214.351 247.789,217.351 247.5,220.5C 238.317,222.35 228.984,223.017 219.5,222.5C 219.5,221.5 219.5,220.5 219.5,219.5C 227.542,219.736 235.542,219.403 243.5,218.5C 243.5,216.5 243.5,214.5 243.5,212.5C 239.46,210.557 235.293,208.557 231,206.5C 230.421,202.797 230.588,199.131 231.5,195.5 Z"/></g>
<g><path style="opacity:1" fill="#a25018" d="M 72.5,197.5 C 73.9187,196.549 75.5853,196.216 77.5,196.5C 77.5,198.167 77.5,199.833 77.5,201.5C 76.5655,200.432 76.2322,199.099 76.5,197.5C 75.1667,197.5 73.8333,197.5 72.5,197.5 Z"/></g>
<g><path style="opacity:1" fill="#763a12" d="M 63.5,204.5 C 64.8001,206.223 65.4668,208.39 65.5,211C 65.4961,213.361 65.1627,215.527 64.5,217.5C 64.7693,213.069 64.436,208.735 63.5,204.5 Z"/></g>
<g><path style="opacity:1" fill="#6e3611" d="M 194.5,207.5 C 194.5,209.833 194.5,212.167 194.5,214.5C 193.835,212.631 193.169,210.631 192.5,208.5C 191.391,209.59 190.391,209.59 189.5,208.5C 191.045,207.548 192.712,207.215 194.5,207.5 Z"/></g>
<g><path style="opacity:1" fill="#170b03" d="M 194.5,207.5 C 192.712,207.215 191.045,207.548 189.5,208.5C 190.391,209.59 191.391,209.59 192.5,208.5C 193.169,210.631 193.835,212.631 194.5,214.5C 202.099,214.787 209.432,213.787 216.5,211.5C 216.5,212.5 216.5,213.5 216.5,214.5C 209.417,216.632 202.084,217.799 194.5,218C 193.556,220.719 193.223,223.552 193.5,226.5C 200.279,226.713 206.946,226.047 213.5,224.5C 213.5,225.5 213.5,226.5 213.5,227.5C 205.974,229.201 198.308,229.867 190.5,229.5C 190.666,224.489 190.499,219.489 190,214.5C 187.997,211.5 187.164,208.167 187.5,204.5C 194.615,204.735 201.615,204.068 208.5,202.5C 208.5,203.5 208.5,204.5 208.5,205.5C 204.076,207.213 199.409,207.88 194.5,207.5 Z"/></g>
<g><path style="opacity:1" fill="#1d1005" d="M 131.5,247.5 C 131.337,242.453 131.671,237.453 132.5,232.5C 133.487,227.695 133.821,222.695 133.5,217.5C 134.552,217.351 135.552,217.517 136.5,218C 139.064,221.608 142.064,224.774 145.5,227.5C 146.689,228.429 148.022,228.762 149.5,228.5C 148.889,231.961 150.056,234.628 153,236.5C 153.977,238.74 154.477,241.073 154.5,243.5C 153.167,243.5 151.833,243.5 150.5,243.5C 151.003,239.497 149.67,236.331 146.5,234C 142.49,233.643 138.49,233.81 134.5,234.5C 134.5,238.833 134.5,243.167 134.5,247.5C 133.5,247.5 132.5,247.5 131.5,247.5 Z"/></g>
<g><path style="opacity:1" fill="#65320f" d="M 137.5,223.5 C 136.527,225.948 136.194,228.615 136.5,231.5C 135.197,228.645 135.197,225.645 136.5,222.5C 137.107,222.624 137.44,222.957 137.5,223.5 Z"/></g>
<g><path style="opacity:1" fill="#eb7524" d="M 137.5,223.5 C 139.973,225.143 141.973,227.31 143.5,230C 141.08,230.29 138.746,230.79 136.5,231.5C 136.194,228.615 136.527,225.948 137.5,223.5 Z"/></g>
<g><path style="opacity:1" fill="#1d1005" d="M 165.5,213.5 C 166.5,213.5 167.5,213.5 168.5,213.5C 168.827,218.214 168.493,222.88 167.5,227.5C 165.244,228.421 164.244,230.088 164.5,232.5C 169.167,232.5 173.833,232.5 178.5,232.5C 178.5,233.5 178.5,234.5 178.5,235.5C 172.5,235.5 166.5,235.5 160.5,235.5C 161.313,232.327 162.647,229.327 164.5,226.5C 165.492,222.217 165.826,217.884 165.5,213.5 Z"/></g>
<g><path style="opacity:1" fill="#9b4d17" d="M 132.5,232.5 C 131.671,237.453 131.337,242.453 131.5,247.5C 130.353,243.354 130.186,239.02 131,234.5C 131.278,233.584 131.778,232.918 132.5,232.5 Z"/></g>
<g><path style="opacity:1" fill="#1c0f04" d="M 110.5,221.5 C 113.5,221.5 116.5,221.5 119.5,221.5C 119.5,222.5 119.5,223.5 119.5,224.5C 115.617,224.109 111.95,224.776 108.5,226.5C 107.386,227.723 107.219,229.056 108,230.5C 113.747,233.823 119.914,236.323 126.5,238C 127.451,241.057 127.784,244.223 127.5,247.5C 119.491,249.199 111.491,249.865 103.5,249.5C 103.833,248.833 104.167,248.167 104.5,247.5C 110.851,246.761 117.184,245.928 123.5,245C 124.38,243.644 124.714,242.144 124.5,240.5C 118.759,238.817 113.093,236.983 107.5,235C 104.943,232.3 104.11,229.133 105,225.5C 106.98,224.251 108.813,222.918 110.5,221.5 Z"/></g>
</svg>
